# Blender 5.1.2
# www.blender.org
mtllib seekurjr_chassis.mtl
o seekurjr_chassis
v -0.343728 -0.305120 0.230538
v -0.175580 -0.305120 0.230538
v -0.415078 -0.233770 0.230538
v -0.525707 -0.123141 0.230538
v -0.525707 0.123141 0.230538
v -0.415078 0.233770 0.230538
v -0.343728 0.305120 0.230538
v -0.175546 0.305120 0.230538
v 0.392632 -0.232585 0.247005
v 0.392718 -0.232328 0.247127
v 0.388200 -0.240400 0.244607
v 0.525707 -0.123141 0.230248
v 0.388011 -0.240627 0.244579
v 0.456474 -0.162129 0.251695
v 0.455594 -0.170230 0.246575
v 0.450973 -0.178272 0.244149
v 0.443670 -0.184413 0.244973
v 0.435323 -0.133085 0.287289
v 0.343728 -0.305120 0.230248
v 0.447107 -0.152762 0.264980
v 0.453411 -0.155825 0.258338
v 0.525707 0.123141 0.230248
v 0.395656 -0.249098 0.230248
v -0.395656 -0.249098 0.230248
v 0.395656 -0.249098 0.153014
v 0.395656 0.249098 0.230248
v 0.343728 0.305120 0.230248
v -0.395656 0.249098 0.230248
v 0.395656 0.249098 0.153014
v 0.192752 0.249098 -0.090000
v 0.192752 -0.249098 -0.090000
v -0.192752 0.249098 -0.090000
v -0.192752 -0.249098 -0.090000
v -0.395656 0.249098 0.153014
v -0.395656 -0.249098 0.153014
v 0.372394 0.249600 0.249290
v 0.121899 0.305120 0.230248
v 0.364976 0.248476 0.255348
v 0.372645 0.249571 0.249133
v 0.380707 0.246768 0.245404
v 0.380956 0.246623 0.245330
v 0.360152 0.243652 0.262189
v 0.360249 0.243846 0.261983
v 0.450973 0.178272 0.244149
v 0.388011 0.240627 0.244579
v 0.365172 0.248569 0.255143
v 0.330947 0.237461 0.287289
v 0.435323 0.133085 0.287289
v 0.121310 0.237461 0.287289
v 0.424823 0.165566 0.271702
v 0.375786 0.216086 0.270651
v 0.368001 0.220617 0.272958
v 0.367776 0.220809 0.272982
v 0.361860 0.227921 0.272133
v 0.361719 0.228171 0.272057
v 0.359028 0.236234 0.268247
v 0.359002 0.236485 0.268087
v 0.376043 0.215997 0.270532
v 0.383913 0.215084 0.265598
v 0.384144 0.215117 0.265411
v 0.390297 0.218032 0.258981
v 0.390448 0.218180 0.258769
v 0.393475 0.224255 0.252315
v 0.393511 0.224484 0.252126
v 0.392718 0.232328 0.247127
v 0.421990 0.173879 0.267816
v 0.423115 0.181298 0.261758
v 0.427938 0.186121 0.254917
v 0.392632 0.232585 0.247005
v 0.388200 0.240400 0.244607
v 0.435356 0.187246 0.248859
v 0.443670 0.184413 0.244973
v 0.430963 0.158263 0.272527
v 0.439006 0.153642 0.270101
v 0.447107 0.152762 0.264980
v 0.453411 0.155825 0.258338
v 0.456474 0.162129 0.251695
v 0.455594 0.170230 0.246575
v 0.121310 -0.237461 0.287289
v 0.121310 0.291161 0.242016
v 0.121310 -0.291161 0.242016
v -0.175113 0.291161 0.242016
v -0.175113 0.237461 0.287289
v -0.175113 -0.291161 0.242016
v -0.175546 0.305120 0.230248
v -0.343728 0.305120 0.230248
v -0.368688 0.249571 0.251939
v -0.364976 0.248476 0.255348
v -0.362304 0.246623 0.258557
v -0.380707 0.246768 0.245404
v -0.376816 0.248569 0.246886
v -0.372394 0.249600 0.249290
v -0.415078 0.233770 0.230248
v -0.384825 0.243846 0.244555
v -0.330947 0.237461 0.287289
v -0.435323 0.133085 0.287289
v -0.361860 0.227921 0.272133
v -0.364402 0.224255 0.272931
v -0.359127 0.240400 0.265223
v -0.359028 0.236234 0.268247
v -0.359884 0.232328 0.270410
v -0.422089 0.178045 0.264792
v -0.421990 0.173879 0.267816
v -0.360152 0.243652 0.262189
v -0.371645 0.218032 0.272207
v -0.368001 0.220617 0.272958
v -0.422846 0.169973 0.269979
v -0.424823 0.165566 0.271702
v -0.427364 0.161900 0.272500
v -0.430963 0.158263 0.272527
v -0.434608 0.155677 0.271776
v -0.439006 0.153642 0.270101
v -0.442918 0.152729 0.267974
v -0.447107 0.152762 0.264980
v -0.525707 0.123141 0.230248
v -0.450391 0.153731 0.261964
v -0.453411 0.155825 0.258338
v -0.455315 0.158454 0.255123
v -0.456474 0.162129 0.251695
v -0.456561 0.165816 0.249019
v -0.455594 0.170230 0.246575
v -0.453845 0.174130 0.245050
v -0.450973 0.178272 0.244149
v -0.447788 0.181492 0.244125
v -0.443670 0.184413 0.244973
v -0.393511 0.224484 0.252126
v -0.393599 0.228171 0.249450
v -0.392352 0.220809 0.255554
v -0.390448 0.218180 0.258769
v -0.387429 0.216086 0.262395
v -0.384144 0.215117 0.265411
v -0.439778 0.186214 0.246455
v -0.376043 0.215997 0.270532
v -0.379956 0.215084 0.268404
v -0.435356 0.187246 0.248859
v -0.431650 0.187217 0.251508
v -0.427938 0.186121 0.254917
v -0.425266 0.184268 0.258126
v -0.423115 0.181298 0.261758
v -0.392632 0.232585 0.247005
v -0.390882 0.236485 0.245481
v -0.388011 0.240627 0.244579
v -0.525707 -0.123141 0.230248
v -0.415078 -0.233770 0.230248
v -0.455315 -0.158454 0.255123
v -0.453411 -0.155825 0.258338
v -0.450391 -0.153731 0.261964
v -0.450973 -0.178272 0.244149
v -0.453845 -0.174130 0.245050
v -0.455594 -0.170230 0.246575
v -0.456561 -0.165816 0.249019
v -0.456474 -0.162129 0.251695
v -0.435323 -0.133085 0.287289
v -0.442918 -0.152729 0.267974
v -0.439006 -0.153642 0.270101
v -0.434608 -0.155677 0.271776
v -0.447107 -0.152762 0.264980
v -0.430963 -0.158263 0.272527
v -0.427364 -0.161900 0.272500
v -0.330947 -0.237461 0.287289
v -0.175113 -0.237461 0.287289
v -0.343728 -0.305120 0.230248
v -0.422846 -0.169973 0.269979
v -0.421990 -0.173879 0.267816
v -0.360152 -0.243652 0.262189
v -0.359127 -0.240400 0.265223
v -0.359028 -0.236234 0.268247
v -0.364402 -0.224255 0.272931
v -0.361860 -0.227921 0.272133
v -0.359884 -0.232328 0.270410
v -0.424823 -0.165566 0.271702
v -0.371645 -0.218032 0.272207
v -0.368001 -0.220617 0.272958
v -0.376043 -0.215997 0.270532
v -0.379956 -0.215084 0.268404
v -0.384144 -0.215117 0.265411
v -0.387429 -0.216086 0.262395
v -0.423115 -0.181298 0.261758
v -0.422089 -0.178045 0.264792
v -0.390448 -0.218180 0.258769
v -0.425266 -0.184268 0.258126
v -0.392352 -0.220809 0.255554
v -0.427938 -0.186121 0.254917
v -0.431650 -0.187217 0.251508
v -0.435356 -0.187246 0.248859
v -0.439778 -0.186215 0.246455
v -0.393511 -0.224484 0.252126
v -0.393599 -0.228171 0.249450
v -0.392632 -0.232585 0.247005
v -0.390882 -0.236485 0.245481
v -0.388011 -0.240627 0.244579
v -0.384825 -0.243846 0.244555
v -0.380707 -0.246768 0.245404
v -0.376816 -0.248569 0.246886
v -0.372394 -0.249601 0.249290
v -0.368688 -0.249571 0.251939
v -0.364976 -0.248476 0.255348
v -0.362304 -0.246623 0.258557
v -0.443670 -0.184413 0.244973
v -0.447788 -0.181492 0.244125
v -0.175580 -0.305120 0.230248
v 0.121546 -0.305120 0.230248
v 0.330947 -0.237461 0.287289
v 0.361719 -0.228171 0.272057
v 0.359028 -0.236234 0.268247
v 0.359002 -0.236485 0.268087
v 0.424823 -0.165566 0.271702
v 0.360152 -0.243652 0.262189
v 0.360249 -0.243846 0.261983
v 0.368001 -0.220617 0.272958
v 0.421990 -0.173879 0.267816
v 0.367776 -0.220809 0.272982
v 0.361860 -0.227921 0.272133
v 0.423115 -0.181298 0.261758
v 0.390297 -0.218032 0.258981
v 0.384144 -0.215117 0.265411
v 0.383913 -0.215084 0.265598
v 0.376043 -0.215997 0.270532
v 0.375786 -0.216086 0.270651
v 0.427938 -0.186121 0.254917
v 0.393511 -0.224484 0.252126
v 0.393475 -0.224255 0.252315
v 0.390448 -0.218180 0.258769
v 0.435356 -0.187246 0.248859
v 0.364976 -0.248476 0.255348
v 0.365172 -0.248569 0.255143
v 0.372394 -0.249601 0.249290
v 0.372645 -0.249571 0.249133
v 0.380707 -0.246768 0.245404
v 0.380956 -0.246623 0.245330
v 0.430963 -0.158263 0.272527
v 0.439006 -0.153642 0.270101
v 0.121310 0.291161 0.242120
v -0.162564 0.259102 0.242120
v 0.108762 0.259102 0.242120
v 0.121310 -0.291161 0.242120
v -0.175113 0.291161 0.242120
v -0.162564 -0.259102 0.242120
v -0.175113 -0.291161 0.242120
v 0.108762 -0.259102 0.242120
v 0.108762 0.259102 0.275725
v 0.108762 -0.259102 0.275725
v -0.162564 -0.259102 0.275725
v 0.107648 0.257989 0.281498
v 0.107648 -0.257989 0.281498
v 0.104297 -0.254638 0.286596
v 0.104297 0.254638 0.286596
v -0.161451 -0.257989 0.281498
v -0.162564 0.259102 0.275725
v -0.158100 -0.254638 0.286596
v -0.161451 0.257989 0.281498
v -0.158100 0.254638 0.286596
v -0.157049 0.253587 0.287557
v -0.157049 -0.253587 0.287557
v -0.153161 0.249699 0.289895
v -0.153161 -0.249699 0.289895
v 0.103246 -0.253587 0.287557
v 0.099359 -0.249699 0.289895
v 0.103246 0.253587 0.287557
v 0.099359 0.249699 0.289895
v -0.147558 0.244096 0.291000
v 0.093756 0.244096 0.291000
v 0.093756 -0.244096 0.291000
v -0.147558 -0.244096 0.291000
v 0.121310 0.291161 0.242016
v 0.121310 -0.291161 0.242016
v 0.525707 -0.123141 0.230538
v 0.525707 0.123141 0.230538
v 0.343728 -0.305120 0.230538
v 0.121546 -0.305120 0.230538
v 0.121899 0.305120 0.230538
v 0.343728 0.305120 0.230538
vn -0.0000 -0.0000 1.0000
vn 0.5007 -0.5008 0.7061
vn 0.5007 -0.5007 0.7061
vn 0.5007 -0.5008 0.7060
vn 0.5337 -0.0000 0.8457
vn -0.0000 -0.0000 -1.0000
vn -0.0000 -1.0000 -0.0000
vn 1.0000 -0.0000 -0.0000
vn -0.0000 1.0000 -0.0000
vn 0.7676 -0.0000 -0.6409
vn -0.7676 -0.0000 -0.6409
vn -1.0000 -0.0000 -0.0000
vn 0.5007 0.5007 0.7061
vn 0.5006 0.5007 0.7062
vn -0.0000 0.6446 0.7646
vn 0.5007 0.5006 0.7062
vn 0.5009 0.5006 0.7061
vn 0.5008 0.5007 0.7060
vn 0.5005 0.5007 0.7062
vn 0.5004 0.5003 0.7066
vn -0.5007 0.5007 0.7061
vn -0.5006 0.5007 0.7061
vn -0.5007 0.5007 0.7062
vn -0.5008 0.5008 0.7060
vn -0.5337 -0.0000 0.8457
vn -0.5007 -0.5007 0.7061
vn -0.0000 -0.6446 0.7646
vn 0.5007 -0.5006 0.7062
vn 0.5008 -0.5006 0.7061
vn 0.5006 -0.5007 0.7062
vn 0.5008 -0.5009 0.7059
vn 0.5008 -0.5007 0.7060
vn 0.9819 -0.0000 0.1893
vn -0.0000 -0.9819 0.1893
vn 0.8356 -0.0000 0.5493
vn -0.0000 -0.8356 0.5493
vn -0.9819 -0.0000 0.1893
vn -0.8356 -0.0000 0.5493
vn -0.0000 0.8356 0.5493
vn -0.0000 0.9819 0.1893
vn -0.0000 0.6747 0.7381
vn -0.6747 -0.0000 0.7381
vn -0.6748 -0.0000 0.7380
vn -0.5154 -0.0000 0.8569
vn -0.0000 -0.6747 0.7380
vn -0.0000 -0.5154 0.8569
vn -0.0000 -0.6748 0.7380
vn 0.5154 -0.0000 0.8569
vn 0.6748 -0.0000 0.7380
vn 0.6747 -0.0000 0.7380
vn -0.0000 0.6748 0.7380
vn -0.0000 0.5154 0.8569
vn -0.0000 0.1934 0.9811
vn 0.1934 -0.0000 0.9811
vn -0.0000 -0.1934 0.9811
vn -0.1934 -0.0000 0.9811
s 0
usemtl Material.001
f 12//2 10//2 9//2
f 9//3 11//3 12//3
f 12//4 11//4 13//4
f 13//3 19//3 12//3
f 17//3 10//3 12//3
f 14//3 15//3 12//3
f 12//3 21//3 14//3
f 12//3 15//3 16//3
f 12//3 16//3 17//3
f 12//3 18//3 20//3
f 22//5 48//5 18//5 12//5
f 12//6 19//6 23//6
f 20//3 21//3 12//3
f 35//7 33//7 31//7 25//7 23//7 24//7
f 25//8 29//8 26//8 23//8
f 26//6 27//6 22//6
f 29//9 30//9 32//9 34//9 28//9 26//9
f 31//10 30//10 29//10 25//10
f 33//6 32//6 30//6 31//6
f 32//11 33//11 35//11 34//11
f 34//12 35//12 24//12 28//12
f 44//13 22//13 27//13
f 46//13 36//13 27//13
f 27//14 36//14 39//14
f 37//15 80//15 49//15 47//15 27//15
f 27//16 38//16 46//16
f 27//13 43//13 38//13
f 39//13 40//13 27//13
f 40//13 41//13 27//13
f 27//13 41//13 45//13
f 27//13 47//13 42//13
f 42//17 43//17 27//17
f 27//13 45//13 44//13
f 49//1 79//1 203//1 18//1 48//1 47//1
f 50//13 47//13 48//13
f 51//13 47//13 50//13
f 51//13 52//13 47//13
f 47//14 52//14 53//14
f 53//13 54//13 47//13
f 47//13 54//13 55//13
f 55//13 56//13 47//13
f 47//13 56//13 57//13
f 47//13 57//13 42//13
f 50//18 58//18 51//18
f 59//13 58//13 50//13
f 50//13 60//13 59//13
f 61//13 60//13 50//13
f 62//14 61//14 50//14
f 50//13 63//13 62//13
f 64//17 63//17 50//17
f 50//13 65//13 64//13
f 65//13 50//13 66//13
f 66//13 67//13 65//13
f 65//13 67//13 68//13
f 68//19 69//19 65//19
f 68//13 70//13 69//13
f 70//13 68//13 71//13
f 71//20 45//20 70//20
f 45//13 71//13 72//13
f 72//13 44//13 45//13
f 48//13 73//13 50//13
f 74//13 73//13 48//13
f 48//13 75//13 74//13
f 76//13 75//13 48//13
f 48//13 22//13 76//13
f 22//13 77//13 76//13
f 22//13 78//13 77//13
f 44//13 78//13 22//13
f 80//12 81//12 79//12 49//12
f 80//15 37//15 85//15 82//15
f 82//15 85//15 86//15 95//15 83//15
f 83//8 161//8 84//8 82//8
f 86//21 87//21 88//21
f 86//21 92//21 87//21
f 88//21 89//21 86//21
f 95//21 86//21 89//21
f 86//21 90//21 91//21
f 94//21 90//21 86//21
f 91//21 92//21 86//21
f 86//21 93//21 94//21
f 160//1 161//1 83//1 95//1 96//1 153//1
f 96//21 95//21 108//21
f 95//21 97//21 98//21
f 95//21 101//21 97//21
f 98//21 106//21 95//21
f 95//21 99//21 100//21
f 104//21 99//21 95//21
f 100//21 101//21 95//21
f 102//21 103//21 95//21
f 102//21 95//21 105//21
f 103//21 107//21 95//21
f 89//21 104//21 95//21
f 95//21 106//21 105//21
f 95//21 107//21 108//21
f 108//21 109//21 96//21
f 109//21 110//21 96//21
f 110//21 111//21 96//21
f 111//21 112//21 96//21
f 96//21 112//21 113//21
f 96//21 113//21 114//21
f 115//21 96//21 114//21
f 114//21 116//21 115//21
f 116//21 117//21 115//21
f 115//21 117//21 118//21
f 118//21 119//21 115//21
f 115//21 119//21 120//21
f 115//21 120//21 121//21
f 121//21 122//21 115//21
f 115//21 122//21 123//21
f 123//21 124//21 93//21
f 93//21 115//21 123//21
f 93//21 124//21 126//21
f 126//22 124//22 125//22
f 125//21 128//21 126//21
f 126//21 127//21 93//21
f 129//21 128//21 125//21
f 125//21 130//21 129//21
f 132//21 131//21 130//21
f 130//23 125//23 132//23
f 132//21 133//21 134//21
f 133//21 132//21 135//21
f 134//21 131//21 132//21
f 105//21 135//21 136//21
f 135//24 105//24 133//24
f 136//21 137//21 105//21
f 105//21 137//21 138//21
f 138//21 139//21 105//21
f 105//21 139//21 102//21
f 93//21 127//21 140//21
f 140//21 141//21 93//21
f 93//21 141//21 142//21
f 142//21 94//21 93//21
f 96//25 115//25 143//25 153//25
f 148//26 143//26 144//26
f 145//26 146//26 143//26
f 143//26 152//26 145//26
f 143//26 146//26 147//26
f 153//26 143//26 147//26
f 143//26 148//26 149//26
f 143//26 149//26 150//26
f 143//26 150//26 151//26
f 151//26 152//26 143//26
f 154//26 155//26 153//26
f 153//26 157//26 154//26
f 153//26 155//26 156//26
f 153//26 156//26 158//26
f 147//26 157//26 153//26
f 158//26 159//26 153//26
f 160//26 153//26 159//26
f 201//27 84//27 161//27 160//27 162//27
f 162//26 160//26 165//26
f 160//26 163//26 164//26
f 171//26 163//26 160//26
f 160//26 164//26 172//26
f 166//26 165//26 160//26
f 160//26 167//26 166//26
f 160//26 170//26 167//26
f 168//26 169//26 160//26
f 160//26 173//26 168//26
f 169//26 170//26 160//26
f 159//26 171//26 160//26
f 172//26 173//26 160//26
f 174//26 172//26 164//26
f 164//26 175//26 174//26
f 164//26 176//26 175//26
f 177//26 176//26 178//26
f 179//26 178//26 176//26
f 176//26 164//26 179//26
f 180//26 177//26 178//26
f 178//26 181//26 180//26
f 182//26 180//26 181//26
f 181//26 183//26 182//26
f 183//26 184//26 182//26
f 184//26 185//26 182//26
f 187//26 182//26 185//26
f 144//26 185//26 186//26
f 185//26 144//26 188//26
f 188//26 187//26 185//26
f 189//26 188//26 144//26
f 190//26 189//26 144//26
f 191//26 190//26 144//26
f 144//26 192//26 191//26
f 193//26 192//26 144//26
f 194//26 193//26 162//26
f 144//26 162//26 193//26
f 162//26 195//26 194//26
f 196//26 195//26 162//26
f 162//26 197//26 196//26
f 162//26 198//26 197//26
f 165//26 198//26 162//26
f 144//26 186//26 199//26
f 199//26 200//26 144//26
f 144//26 200//26 148//26
f 162//6 144//6 24//6
f 81//27 84//27 201//27 202//27
f 202//27 19//27 203//27 79//27 81//27
f 205//3 204//3 203//3
f 203//28 204//28 213//28
f 203//3 206//3 205//3
f 208//3 206//3 203//3
f 18//3 203//3 207//3
f 211//3 207//3 203//3
f 209//29 208//29 203//29
f 203//3 19//3 209//3
f 203//30 212//30 210//30
f 210//3 211//3 203//3
f 213//3 212//3 203//3
f 210//3 214//3 211//3
f 214//3 216//3 215//3
f 220//3 214//3 215//3
f 217//3 216//3 214//3
f 214//3 218//3 217//3
f 219//31 218//31 214//31
f 214//3 210//3 219//3
f 215//30 223//30 220//30
f 221//3 10//3 220//3
f 10//3 224//3 220//3
f 222//32 221//32 220//32
f 220//3 223//3 222//3
f 10//3 17//3 224//3
f 225//3 209//3 19//3
f 19//28 226//28 225//28
f 227//3 226//3 19//3
f 19//30 228//30 227//30
f 229//3 228//3 19//3
f 19//2 230//2 229//2
f 19//3 13//3 230//3
f 207//3 231//3 18//3
f 18//3 231//3 232//3
f 18//3 232//3 20//3
usemtl Material.002
f 2//1 8//1 7//1 6//1 5//1 4//1 3//1 1//1
f 233//1 237//1 234//1
f 234//1 235//1 233//1
f 236//1 233//1 235//1
f 237//1 239//1 238//1
f 238//1 234//1 237//1
f 239//1 236//1 240//1
f 240//1 238//1 239//1
f 238//7 240//7 242//7
f 240//8 235//8 241//8
f 235//1 240//1 236//1
f 241//8 242//8 240//8
f 242//7 243//7 238//7
f 242//33 241//33 244//33
f 243//34 242//34 245//34
f 244//33 245//33 242//33
f 247//35 246//35 245//35
f 248//36 245//36 246//36
f 245//35 244//35 247//35
f 245//34 248//34 243//34
f 249//37 243//37 248//37
f 248//37 251//37 249//37
f 246//36 250//36 248//36
f 251//38 248//38 250//38
f 244//39 251//39 252//39
f 250//38 252//38 251//38
f 241//40 249//40 251//40
f 251//40 244//40 241//40
f 247//41 252//41 253//41
f 253//42 252//42 254//42
f 252//43 250//43 254//43
f 252//39 247//39 244//39
f 254//44 256//44 255//44
f 255//44 253//44 254//44
f 254//45 250//45 246//45
f 256//46 254//46 257//46
f 254//47 246//47 257//47
f 258//48 257//48 259//48
f 257//46 258//46 256//46
f 257//49 246//49 247//49
f 257//50 247//50 259//50
f 259//51 247//51 253//51
f 260//52 259//52 253//52
f 259//48 260//48 258//48
f 260//53 255//53 261//53
f 253//52 255//52 260//52
f 261//53 262//53 260//53
f 258//54 260//54 262//54
f 263//1 262//1 261//1
f 262//54 263//54 258//54
f 263//55 264//55 256//55
f 261//1 264//1 263//1
f 256//55 258//55 263//55
f 264//56 261//56 255//56
f 255//56 256//56 264//56
f 243//12 249//12 234//12
f 235//9 234//9 249//9
f 249//9 241//9 235//9
f 234//12 238//12 243//12
f 269//1 267//1 268//1 272//1 271//1 270//1
l 265 266
